G04 #@! TF.GenerationSoftware,KiCad,Pcbnew,5.0.0-fee4fd1~66~ubuntu18.04.1*
G04 #@! TF.CreationDate,2018-09-24T18:06:56+02:00*
G04 #@! TF.ProjectId,hyperstm,687970657273746D2E6B696361645F70,rev?*
G04 #@! TF.SameCoordinates,Original*
G04 #@! TF.FileFunction,Soldermask,Bot*
G04 #@! TF.FilePolarity,Negative*
%FSLAX46Y46*%
G04 Gerber Fmt 4.6, Leading zero omitted, Abs format (unit mm)*
G04 Created by KiCad (PCBNEW 5.0.0-fee4fd1~66~ubuntu18.04.1) date Mon Sep 24 18:06:56 2018*
%MOMM*%
%LPD*%
G01*
G04 APERTURE LIST*
%ADD10C,2.000000*%
%ADD11C,2.000000*%
%ADD12C,0.100000*%
%ADD13O,2.000000X2.000000*%
%ADD14R,2.000000X2.000000*%
%ADD15O,2.200000X1.500000*%
%ADD16C,1.750000*%
G04 APERTURE END LIST*
D10*
G04 #@! TO.C,J8*
X137820400Y-67716400D03*
D11*
X137820400Y-67716400D02*
X137820400Y-67716400D01*
D10*
X135620695Y-68986400D03*
D12*
G36*
X136986720Y-69352425D02*
X135254670Y-70352425D01*
X134254670Y-68620375D01*
X135986720Y-67620375D01*
X136986720Y-69352425D01*
X136986720Y-69352425D01*
G37*
G04 #@! TD*
D10*
G04 #@! TO.C,J9*
X177322681Y-121464247D03*
D11*
X177322681Y-121464247D02*
X177322681Y-121464247D01*
D10*
X175690000Y-123410000D03*
D12*
G36*
X177098832Y-123286743D02*
X175813257Y-124818832D01*
X174281168Y-123533257D01*
X175566743Y-122001168D01*
X177098832Y-123286743D01*
X177098832Y-123286743D01*
G37*
G04 #@! TD*
D13*
G04 #@! TO.C,J2*
X144373600Y-66167000D03*
X146913600Y-66167000D03*
X149453600Y-66167000D03*
X151993600Y-66167000D03*
D14*
X154533600Y-66167000D03*
G04 #@! TD*
D10*
G04 #@! TO.C,J6*
X179617457Y-118332626D03*
D11*
X179617457Y-118332626D02*
X179617457Y-118332626D01*
D10*
X180770592Y-116069470D03*
D11*
X180770592Y-116069470D02*
X180770592Y-116069470D01*
D10*
X181923728Y-113806313D03*
D11*
X181923728Y-113806313D02*
X181923728Y-113806313D01*
D10*
X183076864Y-111543157D03*
D11*
X183076864Y-111543157D02*
X183076864Y-111543157D01*
D10*
X184230000Y-109280000D03*
D12*
G36*
X182885003Y-109717016D02*
X183792984Y-107935003D01*
X185574997Y-108842984D01*
X184667016Y-110624997D01*
X182885003Y-109717016D01*
X182885003Y-109717016D01*
G37*
G04 #@! TD*
D10*
G04 #@! TO.C,J7*
X172457670Y-125622918D03*
D11*
X172457670Y-125622918D02*
X172457670Y-125622918D01*
D10*
X170236136Y-126854334D03*
D11*
X170236136Y-126854334D02*
X170236136Y-126854334D01*
D10*
X168014602Y-128085751D03*
D11*
X168014602Y-128085751D02*
X168014602Y-128085751D01*
D10*
X165793068Y-129317167D03*
D11*
X165793068Y-129317167D02*
X165793068Y-129317167D01*
D10*
X163571534Y-130548584D03*
D11*
X163571534Y-130548584D02*
X163571534Y-130548584D01*
D10*
X161350000Y-131780000D03*
D12*
G36*
X162709429Y-132169810D02*
X160960190Y-133139429D01*
X159990571Y-131390190D01*
X161739810Y-130420571D01*
X162709429Y-132169810D01*
X162709429Y-132169810D01*
G37*
G04 #@! TD*
D13*
G04 #@! TO.C,J10*
X156700000Y-132000000D03*
X154160000Y-132000000D03*
X151620000Y-132000000D03*
X149080000Y-132000000D03*
X146540000Y-132000000D03*
D14*
X144000000Y-132000000D03*
G04 #@! TD*
D10*
G04 #@! TO.C,J5*
X135604186Y-129107997D03*
D11*
X135604186Y-129107997D02*
X135604186Y-129107997D01*
D10*
X133971506Y-131053750D03*
D11*
X133971506Y-131053750D02*
X133971506Y-131053750D01*
D10*
X133658434Y-127475317D03*
D11*
X133658434Y-127475317D02*
X133658434Y-127475317D01*
D10*
X132025753Y-129421070D03*
D11*
X132025753Y-129421070D02*
X132025753Y-129421070D01*
D10*
X131712681Y-125842636D03*
D11*
X131712681Y-125842636D02*
X131712681Y-125842636D01*
D10*
X130080000Y-127788389D03*
D12*
G36*
X130203257Y-129197221D02*
X128671168Y-127911646D01*
X129956743Y-126379557D01*
X131488832Y-127665132D01*
X130203257Y-129197221D01*
X130203257Y-129197221D01*
G37*
G04 #@! TD*
D10*
G04 #@! TO.C,J4*
X117140295Y-110041182D03*
D11*
X117140295Y-110041182D02*
X117140295Y-110041182D01*
D10*
X119340000Y-108771182D03*
D11*
X119340000Y-108771182D02*
X119340000Y-108771182D01*
D10*
X118410295Y-112240886D03*
D11*
X118410295Y-112240886D02*
X118410295Y-112240886D01*
D10*
X120610000Y-110970886D03*
D11*
X120610000Y-110970886D02*
X120610000Y-110970886D01*
D10*
X119680295Y-114440591D03*
D11*
X119680295Y-114440591D02*
X119680295Y-114440591D01*
D10*
X121880000Y-113170591D03*
D11*
X121880000Y-113170591D02*
X121880000Y-113170591D01*
D10*
X120950296Y-116640295D03*
D11*
X120950296Y-116640295D02*
X120950296Y-116640295D01*
D10*
X123150000Y-115370295D03*
D11*
X123150000Y-115370295D02*
X123150000Y-115370295D01*
D10*
X122220295Y-118840000D03*
D11*
X122220295Y-118840000D02*
X122220295Y-118840000D01*
D10*
X124420000Y-117570000D03*
D12*
G36*
X124786025Y-116203975D02*
X125786025Y-117936025D01*
X124053975Y-118936025D01*
X123053975Y-117203975D01*
X124786025Y-116203975D01*
X124786025Y-116203975D01*
G37*
G04 #@! TD*
D15*
G04 #@! TO.C,J1*
X180637500Y-96500000D03*
X180637500Y-103500000D03*
D16*
X177937500Y-97500000D03*
X177937500Y-102500000D03*
G04 #@! TD*
M02*
