M48
;DRILL file {KiCad 5.0.0-fee4fd1~66~ubuntu18.04.1} date Mon Sep 24 18:06:58 2018
;FORMAT={-:-/ absolute / inch / decimal}
FMAT,2
INCH,TZ
T1C0.0118
T2C0.0236
T3C0.0335
T4C0.0394
%
G90
G05
M72
T1
X4.7398Y-3.7996
X4.9224Y-3.9374
X4.974Y-4.2071
X5.0516Y-3.2287
X5.1791Y-4.5106
X5.3276Y-4.6571
X5.3425Y-3.8827
X5.4563Y-3.7748
X5.4846Y-3.9157
X5.54Y-3.84
X5.61Y-4.27
X5.626Y-4.9008
X5.67Y-3.4
X5.7087Y-3.5035
X5.72Y-4.04
X5.7232Y-3.9902
X5.7417Y-3.8799
X5.75Y-3.54
X5.7528Y-4.0705
X5.7921Y-2.8846
X5.89Y-3.93
X5.9087Y-4.8323
X5.9108Y-3.84
X5.911Y-4.7988
X5.9173Y-4.0008
X5.9209Y-4.31
X5.9441Y-3.7752
X5.9547Y-4.9028
X5.9622Y-4.9563
X5.965Y-3.8421
X6.Y-4.98
X6.0059Y-3.5618
X6.0091Y-2.8307
X6.0157Y-3.9209
X6.0169Y-3.0276
X6.03Y-4.75
X6.052Y-3.7945
X6.0551Y-3.5051
X6.0638Y-4.3953
X6.07Y-4.93
X6.07Y-4.97
X6.072Y-3.6807
X6.0854Y-3.7315
X6.0964Y-3.9375
X6.1059Y-3.4425
X6.11Y-4.63
X6.11Y-4.75
X6.111Y-4.0685
X6.12Y-3.87
X6.1319Y-4.3594
X6.1762Y-3.878
X6.19Y-5.03
X6.19Y-4.93
X6.21Y-4.38
X6.24Y-4.32
X6.3268Y-3.0071
X6.339Y-3.8886
X6.487Y-2.9677
X6.5429Y-3.652
X6.574Y-3.862
X6.6811Y-3.6634
X6.6878Y-3.1531
X6.7083Y-2.915
X6.7358Y-4.2941
X6.7461Y-2.9575
X6.7752Y-3.5343
X6.7988Y-2.9992
X6.8606Y-3.0606
X6.9217Y-3.1217
X6.9273Y-4.2609
X6.9516Y-3.15
X7.0646Y-3.5311
X7.1402Y-3.6638
T3
X7.0054Y-3.8386
X7.0054Y-4.0354
T4
X4.6118Y-4.3323
X4.6618Y-4.4189
X4.6984Y-4.2823
X4.7118Y-4.5055
X4.7484Y-4.3689
X4.7618Y-4.5921
X4.7984Y-4.4555
X4.8118Y-4.6787
X4.8484Y-4.5421
X4.8984Y-4.6287
X5.3394Y-2.716
X5.426Y-2.666
X5.6693Y-5.1969
X5.7693Y-5.1969
X5.8693Y-5.1969
X5.9693Y-5.1969
X6.0693Y-5.1969
X6.1693Y-5.1969
X5.684Y-2.605
X5.784Y-2.605
X5.884Y-2.605
X5.984Y-2.605
X6.084Y-2.605
X7.0716Y-4.6588
X7.117Y-4.5697
X7.1624Y-4.4806
X7.2078Y-4.3915
X7.2531Y-4.3024
X6.9169Y-4.8587
X6.9812Y-4.7821
X5.1213Y-5.031
X5.1855Y-4.9544
X5.1979Y-5.0953
X5.2621Y-5.0187
X5.2745Y-5.1596
X5.3387Y-5.083
X6.3524Y-5.1882
X6.4398Y-5.1397
X6.5273Y-5.0912
X6.6147Y-5.0427
X6.7022Y-4.9943
X6.7897Y-4.9458
T2
X7.0979Y-3.7992G85X7.1255Y-3.7992
G05
X7.1255Y-4.0748G85X7.0979Y-4.0748
G05
T0
M30
