G04 #@! TF.GenerationSoftware,KiCad,Pcbnew,5.0.0-fee4fd1~66~ubuntu18.04.1*
G04 #@! TF.CreationDate,2018-09-24T18:06:56+02:00*
G04 #@! TF.ProjectId,hyperstm,687970657273746D2E6B696361645F70,rev?*
G04 #@! TF.SameCoordinates,Original*
G04 #@! TF.FileFunction,Paste,Top*
G04 #@! TF.FilePolarity,Positive*
%FSLAX46Y46*%
G04 Gerber Fmt 4.6, Leading zero omitted, Abs format (unit mm)*
G04 Created by KiCad (PCBNEW 5.0.0-fee4fd1~66~ubuntu18.04.1) date Mon Sep 24 18:06:56 2018*
%MOMM*%
%LPD*%
G01*
G04 APERTURE LIST*
%ADD10C,0.320000*%
%ADD11R,2.180000X1.600000*%
%ADD12C,0.100000*%
%ADD13C,0.875000*%
%ADD14R,1.900000X1.500000*%
%ADD15R,1.350000X0.400000*%
%ADD16C,1.350000*%
%ADD17C,1.170000*%
%ADD18C,1.000000*%
%ADD19C,0.850000*%
%ADD20C,0.750000*%
%ADD21R,0.280000X1.500000*%
%ADD22R,1.500000X0.280000*%
%ADD23R,0.900000X0.800000*%
%ADD24R,1.060000X0.650000*%
G04 APERTURE END LIST*
D10*
G04 #@! TO.C,U3*
X153702000Y-126714000D03*
X154702000Y-126714000D03*
X155702000Y-126714001D03*
X156702000Y-126714000D03*
X157702000Y-126714000D03*
X153702000Y-125714000D03*
X154702000Y-125714000D03*
X155702000Y-125714000D03*
X156702000Y-125714000D03*
X157702000Y-125714000D03*
X153701999Y-124714000D03*
X154702000Y-124714000D03*
X155702000Y-124714000D03*
X156702000Y-124714000D03*
X157702001Y-124714000D03*
X153702000Y-123714000D03*
X154702000Y-123714000D03*
X155702000Y-123714000D03*
X156702000Y-123714000D03*
X157702000Y-123714000D03*
X153702000Y-122714000D03*
X154702000Y-122714000D03*
X155702000Y-122713999D03*
X156702000Y-122714000D03*
G04 #@! TD*
D11*
G04 #@! TO.C,SW2*
X129590000Y-98000000D03*
X120410000Y-98000000D03*
G04 #@! TD*
G04 #@! TO.C,SW1*
X129590000Y-102000000D03*
X120410000Y-102000000D03*
G04 #@! TD*
D12*
G04 #@! TO.C,C1*
G36*
X172985691Y-101634053D02*
X173006926Y-101637203D01*
X173027750Y-101642419D01*
X173047962Y-101649651D01*
X173067368Y-101658830D01*
X173085781Y-101669866D01*
X173103024Y-101682654D01*
X173118930Y-101697070D01*
X173133346Y-101712976D01*
X173146134Y-101730219D01*
X173157170Y-101748632D01*
X173166349Y-101768038D01*
X173173581Y-101788250D01*
X173178797Y-101809074D01*
X173181947Y-101830309D01*
X173183000Y-101851750D01*
X173183000Y-102364250D01*
X173181947Y-102385691D01*
X173178797Y-102406926D01*
X173173581Y-102427750D01*
X173166349Y-102447962D01*
X173157170Y-102467368D01*
X173146134Y-102485781D01*
X173133346Y-102503024D01*
X173118930Y-102518930D01*
X173103024Y-102533346D01*
X173085781Y-102546134D01*
X173067368Y-102557170D01*
X173047962Y-102566349D01*
X173027750Y-102573581D01*
X173006926Y-102578797D01*
X172985691Y-102581947D01*
X172964250Y-102583000D01*
X172526750Y-102583000D01*
X172505309Y-102581947D01*
X172484074Y-102578797D01*
X172463250Y-102573581D01*
X172443038Y-102566349D01*
X172423632Y-102557170D01*
X172405219Y-102546134D01*
X172387976Y-102533346D01*
X172372070Y-102518930D01*
X172357654Y-102503024D01*
X172344866Y-102485781D01*
X172333830Y-102467368D01*
X172324651Y-102447962D01*
X172317419Y-102427750D01*
X172312203Y-102406926D01*
X172309053Y-102385691D01*
X172308000Y-102364250D01*
X172308000Y-101851750D01*
X172309053Y-101830309D01*
X172312203Y-101809074D01*
X172317419Y-101788250D01*
X172324651Y-101768038D01*
X172333830Y-101748632D01*
X172344866Y-101730219D01*
X172357654Y-101712976D01*
X172372070Y-101697070D01*
X172387976Y-101682654D01*
X172405219Y-101669866D01*
X172423632Y-101658830D01*
X172443038Y-101649651D01*
X172463250Y-101642419D01*
X172484074Y-101637203D01*
X172505309Y-101634053D01*
X172526750Y-101633000D01*
X172964250Y-101633000D01*
X172985691Y-101634053D01*
X172985691Y-101634053D01*
G37*
D13*
X172745500Y-102108000D03*
D12*
G36*
X171410691Y-101634053D02*
X171431926Y-101637203D01*
X171452750Y-101642419D01*
X171472962Y-101649651D01*
X171492368Y-101658830D01*
X171510781Y-101669866D01*
X171528024Y-101682654D01*
X171543930Y-101697070D01*
X171558346Y-101712976D01*
X171571134Y-101730219D01*
X171582170Y-101748632D01*
X171591349Y-101768038D01*
X171598581Y-101788250D01*
X171603797Y-101809074D01*
X171606947Y-101830309D01*
X171608000Y-101851750D01*
X171608000Y-102364250D01*
X171606947Y-102385691D01*
X171603797Y-102406926D01*
X171598581Y-102427750D01*
X171591349Y-102447962D01*
X171582170Y-102467368D01*
X171571134Y-102485781D01*
X171558346Y-102503024D01*
X171543930Y-102518930D01*
X171528024Y-102533346D01*
X171510781Y-102546134D01*
X171492368Y-102557170D01*
X171472962Y-102566349D01*
X171452750Y-102573581D01*
X171431926Y-102578797D01*
X171410691Y-102581947D01*
X171389250Y-102583000D01*
X170951750Y-102583000D01*
X170930309Y-102581947D01*
X170909074Y-102578797D01*
X170888250Y-102573581D01*
X170868038Y-102566349D01*
X170848632Y-102557170D01*
X170830219Y-102546134D01*
X170812976Y-102533346D01*
X170797070Y-102518930D01*
X170782654Y-102503024D01*
X170769866Y-102485781D01*
X170758830Y-102467368D01*
X170749651Y-102447962D01*
X170742419Y-102427750D01*
X170737203Y-102406926D01*
X170734053Y-102385691D01*
X170733000Y-102364250D01*
X170733000Y-101851750D01*
X170734053Y-101830309D01*
X170737203Y-101809074D01*
X170742419Y-101788250D01*
X170749651Y-101768038D01*
X170758830Y-101748632D01*
X170769866Y-101730219D01*
X170782654Y-101712976D01*
X170797070Y-101697070D01*
X170812976Y-101682654D01*
X170830219Y-101669866D01*
X170848632Y-101658830D01*
X170868038Y-101649651D01*
X170888250Y-101642419D01*
X170909074Y-101637203D01*
X170930309Y-101634053D01*
X170951750Y-101633000D01*
X171389250Y-101633000D01*
X171410691Y-101634053D01*
X171410691Y-101634053D01*
G37*
D13*
X171170500Y-102108000D03*
G04 #@! TD*
D12*
G04 #@! TO.C,C4*
G36*
X138961691Y-108555053D02*
X138982926Y-108558203D01*
X139003750Y-108563419D01*
X139023962Y-108570651D01*
X139043368Y-108579830D01*
X139061781Y-108590866D01*
X139079024Y-108603654D01*
X139094930Y-108618070D01*
X139109346Y-108633976D01*
X139122134Y-108651219D01*
X139133170Y-108669632D01*
X139142349Y-108689038D01*
X139149581Y-108709250D01*
X139154797Y-108730074D01*
X139157947Y-108751309D01*
X139159000Y-108772750D01*
X139159000Y-109210250D01*
X139157947Y-109231691D01*
X139154797Y-109252926D01*
X139149581Y-109273750D01*
X139142349Y-109293962D01*
X139133170Y-109313368D01*
X139122134Y-109331781D01*
X139109346Y-109349024D01*
X139094930Y-109364930D01*
X139079024Y-109379346D01*
X139061781Y-109392134D01*
X139043368Y-109403170D01*
X139023962Y-109412349D01*
X139003750Y-109419581D01*
X138982926Y-109424797D01*
X138961691Y-109427947D01*
X138940250Y-109429000D01*
X138427750Y-109429000D01*
X138406309Y-109427947D01*
X138385074Y-109424797D01*
X138364250Y-109419581D01*
X138344038Y-109412349D01*
X138324632Y-109403170D01*
X138306219Y-109392134D01*
X138288976Y-109379346D01*
X138273070Y-109364930D01*
X138258654Y-109349024D01*
X138245866Y-109331781D01*
X138234830Y-109313368D01*
X138225651Y-109293962D01*
X138218419Y-109273750D01*
X138213203Y-109252926D01*
X138210053Y-109231691D01*
X138209000Y-109210250D01*
X138209000Y-108772750D01*
X138210053Y-108751309D01*
X138213203Y-108730074D01*
X138218419Y-108709250D01*
X138225651Y-108689038D01*
X138234830Y-108669632D01*
X138245866Y-108651219D01*
X138258654Y-108633976D01*
X138273070Y-108618070D01*
X138288976Y-108603654D01*
X138306219Y-108590866D01*
X138324632Y-108579830D01*
X138344038Y-108570651D01*
X138364250Y-108563419D01*
X138385074Y-108558203D01*
X138406309Y-108555053D01*
X138427750Y-108554000D01*
X138940250Y-108554000D01*
X138961691Y-108555053D01*
X138961691Y-108555053D01*
G37*
D13*
X138684000Y-108991500D03*
D12*
G36*
X138961691Y-106980053D02*
X138982926Y-106983203D01*
X139003750Y-106988419D01*
X139023962Y-106995651D01*
X139043368Y-107004830D01*
X139061781Y-107015866D01*
X139079024Y-107028654D01*
X139094930Y-107043070D01*
X139109346Y-107058976D01*
X139122134Y-107076219D01*
X139133170Y-107094632D01*
X139142349Y-107114038D01*
X139149581Y-107134250D01*
X139154797Y-107155074D01*
X139157947Y-107176309D01*
X139159000Y-107197750D01*
X139159000Y-107635250D01*
X139157947Y-107656691D01*
X139154797Y-107677926D01*
X139149581Y-107698750D01*
X139142349Y-107718962D01*
X139133170Y-107738368D01*
X139122134Y-107756781D01*
X139109346Y-107774024D01*
X139094930Y-107789930D01*
X139079024Y-107804346D01*
X139061781Y-107817134D01*
X139043368Y-107828170D01*
X139023962Y-107837349D01*
X139003750Y-107844581D01*
X138982926Y-107849797D01*
X138961691Y-107852947D01*
X138940250Y-107854000D01*
X138427750Y-107854000D01*
X138406309Y-107852947D01*
X138385074Y-107849797D01*
X138364250Y-107844581D01*
X138344038Y-107837349D01*
X138324632Y-107828170D01*
X138306219Y-107817134D01*
X138288976Y-107804346D01*
X138273070Y-107789930D01*
X138258654Y-107774024D01*
X138245866Y-107756781D01*
X138234830Y-107738368D01*
X138225651Y-107718962D01*
X138218419Y-107698750D01*
X138213203Y-107677926D01*
X138210053Y-107656691D01*
X138209000Y-107635250D01*
X138209000Y-107197750D01*
X138210053Y-107176309D01*
X138213203Y-107155074D01*
X138218419Y-107134250D01*
X138225651Y-107114038D01*
X138234830Y-107094632D01*
X138245866Y-107076219D01*
X138258654Y-107058976D01*
X138273070Y-107043070D01*
X138288976Y-107028654D01*
X138306219Y-107015866D01*
X138324632Y-107004830D01*
X138344038Y-106995651D01*
X138364250Y-106988419D01*
X138385074Y-106983203D01*
X138406309Y-106980053D01*
X138427750Y-106979000D01*
X138940250Y-106979000D01*
X138961691Y-106980053D01*
X138961691Y-106980053D01*
G37*
D13*
X138684000Y-107416500D03*
G04 #@! TD*
D12*
G04 #@! TO.C,C5*
G36*
X144803691Y-112619053D02*
X144824926Y-112622203D01*
X144845750Y-112627419D01*
X144865962Y-112634651D01*
X144885368Y-112643830D01*
X144903781Y-112654866D01*
X144921024Y-112667654D01*
X144936930Y-112682070D01*
X144951346Y-112697976D01*
X144964134Y-112715219D01*
X144975170Y-112733632D01*
X144984349Y-112753038D01*
X144991581Y-112773250D01*
X144996797Y-112794074D01*
X144999947Y-112815309D01*
X145001000Y-112836750D01*
X145001000Y-113274250D01*
X144999947Y-113295691D01*
X144996797Y-113316926D01*
X144991581Y-113337750D01*
X144984349Y-113357962D01*
X144975170Y-113377368D01*
X144964134Y-113395781D01*
X144951346Y-113413024D01*
X144936930Y-113428930D01*
X144921024Y-113443346D01*
X144903781Y-113456134D01*
X144885368Y-113467170D01*
X144865962Y-113476349D01*
X144845750Y-113483581D01*
X144824926Y-113488797D01*
X144803691Y-113491947D01*
X144782250Y-113493000D01*
X144269750Y-113493000D01*
X144248309Y-113491947D01*
X144227074Y-113488797D01*
X144206250Y-113483581D01*
X144186038Y-113476349D01*
X144166632Y-113467170D01*
X144148219Y-113456134D01*
X144130976Y-113443346D01*
X144115070Y-113428930D01*
X144100654Y-113413024D01*
X144087866Y-113395781D01*
X144076830Y-113377368D01*
X144067651Y-113357962D01*
X144060419Y-113337750D01*
X144055203Y-113316926D01*
X144052053Y-113295691D01*
X144051000Y-113274250D01*
X144051000Y-112836750D01*
X144052053Y-112815309D01*
X144055203Y-112794074D01*
X144060419Y-112773250D01*
X144067651Y-112753038D01*
X144076830Y-112733632D01*
X144087866Y-112715219D01*
X144100654Y-112697976D01*
X144115070Y-112682070D01*
X144130976Y-112667654D01*
X144148219Y-112654866D01*
X144166632Y-112643830D01*
X144186038Y-112634651D01*
X144206250Y-112627419D01*
X144227074Y-112622203D01*
X144248309Y-112619053D01*
X144269750Y-112618000D01*
X144782250Y-112618000D01*
X144803691Y-112619053D01*
X144803691Y-112619053D01*
G37*
D13*
X144526000Y-113055500D03*
D12*
G36*
X144803691Y-111044053D02*
X144824926Y-111047203D01*
X144845750Y-111052419D01*
X144865962Y-111059651D01*
X144885368Y-111068830D01*
X144903781Y-111079866D01*
X144921024Y-111092654D01*
X144936930Y-111107070D01*
X144951346Y-111122976D01*
X144964134Y-111140219D01*
X144975170Y-111158632D01*
X144984349Y-111178038D01*
X144991581Y-111198250D01*
X144996797Y-111219074D01*
X144999947Y-111240309D01*
X145001000Y-111261750D01*
X145001000Y-111699250D01*
X144999947Y-111720691D01*
X144996797Y-111741926D01*
X144991581Y-111762750D01*
X144984349Y-111782962D01*
X144975170Y-111802368D01*
X144964134Y-111820781D01*
X144951346Y-111838024D01*
X144936930Y-111853930D01*
X144921024Y-111868346D01*
X144903781Y-111881134D01*
X144885368Y-111892170D01*
X144865962Y-111901349D01*
X144845750Y-111908581D01*
X144824926Y-111913797D01*
X144803691Y-111916947D01*
X144782250Y-111918000D01*
X144269750Y-111918000D01*
X144248309Y-111916947D01*
X144227074Y-111913797D01*
X144206250Y-111908581D01*
X144186038Y-111901349D01*
X144166632Y-111892170D01*
X144148219Y-111881134D01*
X144130976Y-111868346D01*
X144115070Y-111853930D01*
X144100654Y-111838024D01*
X144087866Y-111820781D01*
X144076830Y-111802368D01*
X144067651Y-111782962D01*
X144060419Y-111762750D01*
X144055203Y-111741926D01*
X144052053Y-111720691D01*
X144051000Y-111699250D01*
X144051000Y-111261750D01*
X144052053Y-111240309D01*
X144055203Y-111219074D01*
X144060419Y-111198250D01*
X144067651Y-111178038D01*
X144076830Y-111158632D01*
X144087866Y-111140219D01*
X144100654Y-111122976D01*
X144115070Y-111107070D01*
X144130976Y-111092654D01*
X144148219Y-111079866D01*
X144166632Y-111068830D01*
X144186038Y-111059651D01*
X144206250Y-111052419D01*
X144227074Y-111047203D01*
X144248309Y-111044053D01*
X144269750Y-111043000D01*
X144782250Y-111043000D01*
X144803691Y-111044053D01*
X144803691Y-111044053D01*
G37*
D13*
X144526000Y-111480500D03*
G04 #@! TD*
D12*
G04 #@! TO.C,C6*
G36*
X160805691Y-110841053D02*
X160826926Y-110844203D01*
X160847750Y-110849419D01*
X160867962Y-110856651D01*
X160887368Y-110865830D01*
X160905781Y-110876866D01*
X160923024Y-110889654D01*
X160938930Y-110904070D01*
X160953346Y-110919976D01*
X160966134Y-110937219D01*
X160977170Y-110955632D01*
X160986349Y-110975038D01*
X160993581Y-110995250D01*
X160998797Y-111016074D01*
X161001947Y-111037309D01*
X161003000Y-111058750D01*
X161003000Y-111496250D01*
X161001947Y-111517691D01*
X160998797Y-111538926D01*
X160993581Y-111559750D01*
X160986349Y-111579962D01*
X160977170Y-111599368D01*
X160966134Y-111617781D01*
X160953346Y-111635024D01*
X160938930Y-111650930D01*
X160923024Y-111665346D01*
X160905781Y-111678134D01*
X160887368Y-111689170D01*
X160867962Y-111698349D01*
X160847750Y-111705581D01*
X160826926Y-111710797D01*
X160805691Y-111713947D01*
X160784250Y-111715000D01*
X160271750Y-111715000D01*
X160250309Y-111713947D01*
X160229074Y-111710797D01*
X160208250Y-111705581D01*
X160188038Y-111698349D01*
X160168632Y-111689170D01*
X160150219Y-111678134D01*
X160132976Y-111665346D01*
X160117070Y-111650930D01*
X160102654Y-111635024D01*
X160089866Y-111617781D01*
X160078830Y-111599368D01*
X160069651Y-111579962D01*
X160062419Y-111559750D01*
X160057203Y-111538926D01*
X160054053Y-111517691D01*
X160053000Y-111496250D01*
X160053000Y-111058750D01*
X160054053Y-111037309D01*
X160057203Y-111016074D01*
X160062419Y-110995250D01*
X160069651Y-110975038D01*
X160078830Y-110955632D01*
X160089866Y-110937219D01*
X160102654Y-110919976D01*
X160117070Y-110904070D01*
X160132976Y-110889654D01*
X160150219Y-110876866D01*
X160168632Y-110865830D01*
X160188038Y-110856651D01*
X160208250Y-110849419D01*
X160229074Y-110844203D01*
X160250309Y-110841053D01*
X160271750Y-110840000D01*
X160784250Y-110840000D01*
X160805691Y-110841053D01*
X160805691Y-110841053D01*
G37*
D13*
X160528000Y-111277500D03*
D12*
G36*
X160805691Y-109266053D02*
X160826926Y-109269203D01*
X160847750Y-109274419D01*
X160867962Y-109281651D01*
X160887368Y-109290830D01*
X160905781Y-109301866D01*
X160923024Y-109314654D01*
X160938930Y-109329070D01*
X160953346Y-109344976D01*
X160966134Y-109362219D01*
X160977170Y-109380632D01*
X160986349Y-109400038D01*
X160993581Y-109420250D01*
X160998797Y-109441074D01*
X161001947Y-109462309D01*
X161003000Y-109483750D01*
X161003000Y-109921250D01*
X161001947Y-109942691D01*
X160998797Y-109963926D01*
X160993581Y-109984750D01*
X160986349Y-110004962D01*
X160977170Y-110024368D01*
X160966134Y-110042781D01*
X160953346Y-110060024D01*
X160938930Y-110075930D01*
X160923024Y-110090346D01*
X160905781Y-110103134D01*
X160887368Y-110114170D01*
X160867962Y-110123349D01*
X160847750Y-110130581D01*
X160826926Y-110135797D01*
X160805691Y-110138947D01*
X160784250Y-110140000D01*
X160271750Y-110140000D01*
X160250309Y-110138947D01*
X160229074Y-110135797D01*
X160208250Y-110130581D01*
X160188038Y-110123349D01*
X160168632Y-110114170D01*
X160150219Y-110103134D01*
X160132976Y-110090346D01*
X160117070Y-110075930D01*
X160102654Y-110060024D01*
X160089866Y-110042781D01*
X160078830Y-110024368D01*
X160069651Y-110004962D01*
X160062419Y-109984750D01*
X160057203Y-109963926D01*
X160054053Y-109942691D01*
X160053000Y-109921250D01*
X160053000Y-109483750D01*
X160054053Y-109462309D01*
X160057203Y-109441074D01*
X160062419Y-109420250D01*
X160069651Y-109400038D01*
X160078830Y-109380632D01*
X160089866Y-109362219D01*
X160102654Y-109344976D01*
X160117070Y-109329070D01*
X160132976Y-109314654D01*
X160150219Y-109301866D01*
X160168632Y-109290830D01*
X160188038Y-109281651D01*
X160208250Y-109274419D01*
X160229074Y-109269203D01*
X160250309Y-109266053D01*
X160271750Y-109265000D01*
X160784250Y-109265000D01*
X160805691Y-109266053D01*
X160805691Y-109266053D01*
G37*
D13*
X160528000Y-109702500D03*
G04 #@! TD*
D12*
G04 #@! TO.C,C7*
G36*
X161313691Y-92502053D02*
X161334926Y-92505203D01*
X161355750Y-92510419D01*
X161375962Y-92517651D01*
X161395368Y-92526830D01*
X161413781Y-92537866D01*
X161431024Y-92550654D01*
X161446930Y-92565070D01*
X161461346Y-92580976D01*
X161474134Y-92598219D01*
X161485170Y-92616632D01*
X161494349Y-92636038D01*
X161501581Y-92656250D01*
X161506797Y-92677074D01*
X161509947Y-92698309D01*
X161511000Y-92719750D01*
X161511000Y-93157250D01*
X161509947Y-93178691D01*
X161506797Y-93199926D01*
X161501581Y-93220750D01*
X161494349Y-93240962D01*
X161485170Y-93260368D01*
X161474134Y-93278781D01*
X161461346Y-93296024D01*
X161446930Y-93311930D01*
X161431024Y-93326346D01*
X161413781Y-93339134D01*
X161395368Y-93350170D01*
X161375962Y-93359349D01*
X161355750Y-93366581D01*
X161334926Y-93371797D01*
X161313691Y-93374947D01*
X161292250Y-93376000D01*
X160779750Y-93376000D01*
X160758309Y-93374947D01*
X160737074Y-93371797D01*
X160716250Y-93366581D01*
X160696038Y-93359349D01*
X160676632Y-93350170D01*
X160658219Y-93339134D01*
X160640976Y-93326346D01*
X160625070Y-93311930D01*
X160610654Y-93296024D01*
X160597866Y-93278781D01*
X160586830Y-93260368D01*
X160577651Y-93240962D01*
X160570419Y-93220750D01*
X160565203Y-93199926D01*
X160562053Y-93178691D01*
X160561000Y-93157250D01*
X160561000Y-92719750D01*
X160562053Y-92698309D01*
X160565203Y-92677074D01*
X160570419Y-92656250D01*
X160577651Y-92636038D01*
X160586830Y-92616632D01*
X160597866Y-92598219D01*
X160610654Y-92580976D01*
X160625070Y-92565070D01*
X160640976Y-92550654D01*
X160658219Y-92537866D01*
X160676632Y-92526830D01*
X160696038Y-92517651D01*
X160716250Y-92510419D01*
X160737074Y-92505203D01*
X160758309Y-92502053D01*
X160779750Y-92501000D01*
X161292250Y-92501000D01*
X161313691Y-92502053D01*
X161313691Y-92502053D01*
G37*
D13*
X161036000Y-92938500D03*
D12*
G36*
X161313691Y-94077053D02*
X161334926Y-94080203D01*
X161355750Y-94085419D01*
X161375962Y-94092651D01*
X161395368Y-94101830D01*
X161413781Y-94112866D01*
X161431024Y-94125654D01*
X161446930Y-94140070D01*
X161461346Y-94155976D01*
X161474134Y-94173219D01*
X161485170Y-94191632D01*
X161494349Y-94211038D01*
X161501581Y-94231250D01*
X161506797Y-94252074D01*
X161509947Y-94273309D01*
X161511000Y-94294750D01*
X161511000Y-94732250D01*
X161509947Y-94753691D01*
X161506797Y-94774926D01*
X161501581Y-94795750D01*
X161494349Y-94815962D01*
X161485170Y-94835368D01*
X161474134Y-94853781D01*
X161461346Y-94871024D01*
X161446930Y-94886930D01*
X161431024Y-94901346D01*
X161413781Y-94914134D01*
X161395368Y-94925170D01*
X161375962Y-94934349D01*
X161355750Y-94941581D01*
X161334926Y-94946797D01*
X161313691Y-94949947D01*
X161292250Y-94951000D01*
X160779750Y-94951000D01*
X160758309Y-94949947D01*
X160737074Y-94946797D01*
X160716250Y-94941581D01*
X160696038Y-94934349D01*
X160676632Y-94925170D01*
X160658219Y-94914134D01*
X160640976Y-94901346D01*
X160625070Y-94886930D01*
X160610654Y-94871024D01*
X160597866Y-94853781D01*
X160586830Y-94835368D01*
X160577651Y-94815962D01*
X160570419Y-94795750D01*
X160565203Y-94774926D01*
X160562053Y-94753691D01*
X160561000Y-94732250D01*
X160561000Y-94294750D01*
X160562053Y-94273309D01*
X160565203Y-94252074D01*
X160570419Y-94231250D01*
X160577651Y-94211038D01*
X160586830Y-94191632D01*
X160597866Y-94173219D01*
X160610654Y-94155976D01*
X160625070Y-94140070D01*
X160640976Y-94125654D01*
X160658219Y-94112866D01*
X160676632Y-94101830D01*
X160696038Y-94092651D01*
X160716250Y-94085419D01*
X160737074Y-94080203D01*
X160758309Y-94077053D01*
X160779750Y-94076000D01*
X161292250Y-94076000D01*
X161313691Y-94077053D01*
X161313691Y-94077053D01*
G37*
D13*
X161036000Y-94513500D03*
G04 #@! TD*
D12*
G04 #@! TO.C,C8*
G36*
X144295691Y-87676053D02*
X144316926Y-87679203D01*
X144337750Y-87684419D01*
X144357962Y-87691651D01*
X144377368Y-87700830D01*
X144395781Y-87711866D01*
X144413024Y-87724654D01*
X144428930Y-87739070D01*
X144443346Y-87754976D01*
X144456134Y-87772219D01*
X144467170Y-87790632D01*
X144476349Y-87810038D01*
X144483581Y-87830250D01*
X144488797Y-87851074D01*
X144491947Y-87872309D01*
X144493000Y-87893750D01*
X144493000Y-88331250D01*
X144491947Y-88352691D01*
X144488797Y-88373926D01*
X144483581Y-88394750D01*
X144476349Y-88414962D01*
X144467170Y-88434368D01*
X144456134Y-88452781D01*
X144443346Y-88470024D01*
X144428930Y-88485930D01*
X144413024Y-88500346D01*
X144395781Y-88513134D01*
X144377368Y-88524170D01*
X144357962Y-88533349D01*
X144337750Y-88540581D01*
X144316926Y-88545797D01*
X144295691Y-88548947D01*
X144274250Y-88550000D01*
X143761750Y-88550000D01*
X143740309Y-88548947D01*
X143719074Y-88545797D01*
X143698250Y-88540581D01*
X143678038Y-88533349D01*
X143658632Y-88524170D01*
X143640219Y-88513134D01*
X143622976Y-88500346D01*
X143607070Y-88485930D01*
X143592654Y-88470024D01*
X143579866Y-88452781D01*
X143568830Y-88434368D01*
X143559651Y-88414962D01*
X143552419Y-88394750D01*
X143547203Y-88373926D01*
X143544053Y-88352691D01*
X143543000Y-88331250D01*
X143543000Y-87893750D01*
X143544053Y-87872309D01*
X143547203Y-87851074D01*
X143552419Y-87830250D01*
X143559651Y-87810038D01*
X143568830Y-87790632D01*
X143579866Y-87772219D01*
X143592654Y-87754976D01*
X143607070Y-87739070D01*
X143622976Y-87724654D01*
X143640219Y-87711866D01*
X143658632Y-87700830D01*
X143678038Y-87691651D01*
X143698250Y-87684419D01*
X143719074Y-87679203D01*
X143740309Y-87676053D01*
X143761750Y-87675000D01*
X144274250Y-87675000D01*
X144295691Y-87676053D01*
X144295691Y-87676053D01*
G37*
D13*
X144018000Y-88112500D03*
D12*
G36*
X144295691Y-89251053D02*
X144316926Y-89254203D01*
X144337750Y-89259419D01*
X144357962Y-89266651D01*
X144377368Y-89275830D01*
X144395781Y-89286866D01*
X144413024Y-89299654D01*
X144428930Y-89314070D01*
X144443346Y-89329976D01*
X144456134Y-89347219D01*
X144467170Y-89365632D01*
X144476349Y-89385038D01*
X144483581Y-89405250D01*
X144488797Y-89426074D01*
X144491947Y-89447309D01*
X144493000Y-89468750D01*
X144493000Y-89906250D01*
X144491947Y-89927691D01*
X144488797Y-89948926D01*
X144483581Y-89969750D01*
X144476349Y-89989962D01*
X144467170Y-90009368D01*
X144456134Y-90027781D01*
X144443346Y-90045024D01*
X144428930Y-90060930D01*
X144413024Y-90075346D01*
X144395781Y-90088134D01*
X144377368Y-90099170D01*
X144357962Y-90108349D01*
X144337750Y-90115581D01*
X144316926Y-90120797D01*
X144295691Y-90123947D01*
X144274250Y-90125000D01*
X143761750Y-90125000D01*
X143740309Y-90123947D01*
X143719074Y-90120797D01*
X143698250Y-90115581D01*
X143678038Y-90108349D01*
X143658632Y-90099170D01*
X143640219Y-90088134D01*
X143622976Y-90075346D01*
X143607070Y-90060930D01*
X143592654Y-90045024D01*
X143579866Y-90027781D01*
X143568830Y-90009368D01*
X143559651Y-89989962D01*
X143552419Y-89969750D01*
X143547203Y-89948926D01*
X143544053Y-89927691D01*
X143543000Y-89906250D01*
X143543000Y-89468750D01*
X143544053Y-89447309D01*
X143547203Y-89426074D01*
X143552419Y-89405250D01*
X143559651Y-89385038D01*
X143568830Y-89365632D01*
X143579866Y-89347219D01*
X143592654Y-89329976D01*
X143607070Y-89314070D01*
X143622976Y-89299654D01*
X143640219Y-89286866D01*
X143658632Y-89275830D01*
X143678038Y-89266651D01*
X143698250Y-89259419D01*
X143719074Y-89254203D01*
X143740309Y-89251053D01*
X143761750Y-89250000D01*
X144274250Y-89250000D01*
X144295691Y-89251053D01*
X144295691Y-89251053D01*
G37*
D13*
X144018000Y-89687500D03*
G04 #@! TD*
D12*
G04 #@! TO.C,C10*
G36*
X132772491Y-100776053D02*
X132793726Y-100779203D01*
X132814550Y-100784419D01*
X132834762Y-100791651D01*
X132854168Y-100800830D01*
X132872581Y-100811866D01*
X132889824Y-100824654D01*
X132905730Y-100839070D01*
X132920146Y-100854976D01*
X132932934Y-100872219D01*
X132943970Y-100890632D01*
X132953149Y-100910038D01*
X132960381Y-100930250D01*
X132965597Y-100951074D01*
X132968747Y-100972309D01*
X132969800Y-100993750D01*
X132969800Y-101431250D01*
X132968747Y-101452691D01*
X132965597Y-101473926D01*
X132960381Y-101494750D01*
X132953149Y-101514962D01*
X132943970Y-101534368D01*
X132932934Y-101552781D01*
X132920146Y-101570024D01*
X132905730Y-101585930D01*
X132889824Y-101600346D01*
X132872581Y-101613134D01*
X132854168Y-101624170D01*
X132834762Y-101633349D01*
X132814550Y-101640581D01*
X132793726Y-101645797D01*
X132772491Y-101648947D01*
X132751050Y-101650000D01*
X132238550Y-101650000D01*
X132217109Y-101648947D01*
X132195874Y-101645797D01*
X132175050Y-101640581D01*
X132154838Y-101633349D01*
X132135432Y-101624170D01*
X132117019Y-101613134D01*
X132099776Y-101600346D01*
X132083870Y-101585930D01*
X132069454Y-101570024D01*
X132056666Y-101552781D01*
X132045630Y-101534368D01*
X132036451Y-101514962D01*
X132029219Y-101494750D01*
X132024003Y-101473926D01*
X132020853Y-101452691D01*
X132019800Y-101431250D01*
X132019800Y-100993750D01*
X132020853Y-100972309D01*
X132024003Y-100951074D01*
X132029219Y-100930250D01*
X132036451Y-100910038D01*
X132045630Y-100890632D01*
X132056666Y-100872219D01*
X132069454Y-100854976D01*
X132083870Y-100839070D01*
X132099776Y-100824654D01*
X132117019Y-100811866D01*
X132135432Y-100800830D01*
X132154838Y-100791651D01*
X132175050Y-100784419D01*
X132195874Y-100779203D01*
X132217109Y-100776053D01*
X132238550Y-100775000D01*
X132751050Y-100775000D01*
X132772491Y-100776053D01*
X132772491Y-100776053D01*
G37*
D13*
X132494800Y-101212500D03*
D12*
G36*
X132772491Y-102351053D02*
X132793726Y-102354203D01*
X132814550Y-102359419D01*
X132834762Y-102366651D01*
X132854168Y-102375830D01*
X132872581Y-102386866D01*
X132889824Y-102399654D01*
X132905730Y-102414070D01*
X132920146Y-102429976D01*
X132932934Y-102447219D01*
X132943970Y-102465632D01*
X132953149Y-102485038D01*
X132960381Y-102505250D01*
X132965597Y-102526074D01*
X132968747Y-102547309D01*
X132969800Y-102568750D01*
X132969800Y-103006250D01*
X132968747Y-103027691D01*
X132965597Y-103048926D01*
X132960381Y-103069750D01*
X132953149Y-103089962D01*
X132943970Y-103109368D01*
X132932934Y-103127781D01*
X132920146Y-103145024D01*
X132905730Y-103160930D01*
X132889824Y-103175346D01*
X132872581Y-103188134D01*
X132854168Y-103199170D01*
X132834762Y-103208349D01*
X132814550Y-103215581D01*
X132793726Y-103220797D01*
X132772491Y-103223947D01*
X132751050Y-103225000D01*
X132238550Y-103225000D01*
X132217109Y-103223947D01*
X132195874Y-103220797D01*
X132175050Y-103215581D01*
X132154838Y-103208349D01*
X132135432Y-103199170D01*
X132117019Y-103188134D01*
X132099776Y-103175346D01*
X132083870Y-103160930D01*
X132069454Y-103145024D01*
X132056666Y-103127781D01*
X132045630Y-103109368D01*
X132036451Y-103089962D01*
X132029219Y-103069750D01*
X132024003Y-103048926D01*
X132020853Y-103027691D01*
X132019800Y-103006250D01*
X132019800Y-102568750D01*
X132020853Y-102547309D01*
X132024003Y-102526074D01*
X132029219Y-102505250D01*
X132036451Y-102485038D01*
X132045630Y-102465632D01*
X132056666Y-102447219D01*
X132069454Y-102429976D01*
X132083870Y-102414070D01*
X132099776Y-102399654D01*
X132117019Y-102386866D01*
X132135432Y-102375830D01*
X132154838Y-102366651D01*
X132175050Y-102359419D01*
X132195874Y-102354203D01*
X132217109Y-102351053D01*
X132238550Y-102350000D01*
X132751050Y-102350000D01*
X132772491Y-102351053D01*
X132772491Y-102351053D01*
G37*
D13*
X132494800Y-102787500D03*
G04 #@! TD*
D12*
G04 #@! TO.C,C2*
G36*
X138136691Y-97062053D02*
X138157926Y-97065203D01*
X138178750Y-97070419D01*
X138198962Y-97077651D01*
X138218368Y-97086830D01*
X138236781Y-97097866D01*
X138254024Y-97110654D01*
X138269930Y-97125070D01*
X138284346Y-97140976D01*
X138297134Y-97158219D01*
X138308170Y-97176632D01*
X138317349Y-97196038D01*
X138324581Y-97216250D01*
X138329797Y-97237074D01*
X138332947Y-97258309D01*
X138334000Y-97279750D01*
X138334000Y-97792250D01*
X138332947Y-97813691D01*
X138329797Y-97834926D01*
X138324581Y-97855750D01*
X138317349Y-97875962D01*
X138308170Y-97895368D01*
X138297134Y-97913781D01*
X138284346Y-97931024D01*
X138269930Y-97946930D01*
X138254024Y-97961346D01*
X138236781Y-97974134D01*
X138218368Y-97985170D01*
X138198962Y-97994349D01*
X138178750Y-98001581D01*
X138157926Y-98006797D01*
X138136691Y-98009947D01*
X138115250Y-98011000D01*
X137677750Y-98011000D01*
X137656309Y-98009947D01*
X137635074Y-98006797D01*
X137614250Y-98001581D01*
X137594038Y-97994349D01*
X137574632Y-97985170D01*
X137556219Y-97974134D01*
X137538976Y-97961346D01*
X137523070Y-97946930D01*
X137508654Y-97931024D01*
X137495866Y-97913781D01*
X137484830Y-97895368D01*
X137475651Y-97875962D01*
X137468419Y-97855750D01*
X137463203Y-97834926D01*
X137460053Y-97813691D01*
X137459000Y-97792250D01*
X137459000Y-97279750D01*
X137460053Y-97258309D01*
X137463203Y-97237074D01*
X137468419Y-97216250D01*
X137475651Y-97196038D01*
X137484830Y-97176632D01*
X137495866Y-97158219D01*
X137508654Y-97140976D01*
X137523070Y-97125070D01*
X137538976Y-97110654D01*
X137556219Y-97097866D01*
X137574632Y-97086830D01*
X137594038Y-97077651D01*
X137614250Y-97070419D01*
X137635074Y-97065203D01*
X137656309Y-97062053D01*
X137677750Y-97061000D01*
X138115250Y-97061000D01*
X138136691Y-97062053D01*
X138136691Y-97062053D01*
G37*
D13*
X137896500Y-97536000D03*
D12*
G36*
X139711691Y-97062053D02*
X139732926Y-97065203D01*
X139753750Y-97070419D01*
X139773962Y-97077651D01*
X139793368Y-97086830D01*
X139811781Y-97097866D01*
X139829024Y-97110654D01*
X139844930Y-97125070D01*
X139859346Y-97140976D01*
X139872134Y-97158219D01*
X139883170Y-97176632D01*
X139892349Y-97196038D01*
X139899581Y-97216250D01*
X139904797Y-97237074D01*
X139907947Y-97258309D01*
X139909000Y-97279750D01*
X139909000Y-97792250D01*
X139907947Y-97813691D01*
X139904797Y-97834926D01*
X139899581Y-97855750D01*
X139892349Y-97875962D01*
X139883170Y-97895368D01*
X139872134Y-97913781D01*
X139859346Y-97931024D01*
X139844930Y-97946930D01*
X139829024Y-97961346D01*
X139811781Y-97974134D01*
X139793368Y-97985170D01*
X139773962Y-97994349D01*
X139753750Y-98001581D01*
X139732926Y-98006797D01*
X139711691Y-98009947D01*
X139690250Y-98011000D01*
X139252750Y-98011000D01*
X139231309Y-98009947D01*
X139210074Y-98006797D01*
X139189250Y-98001581D01*
X139169038Y-97994349D01*
X139149632Y-97985170D01*
X139131219Y-97974134D01*
X139113976Y-97961346D01*
X139098070Y-97946930D01*
X139083654Y-97931024D01*
X139070866Y-97913781D01*
X139059830Y-97895368D01*
X139050651Y-97875962D01*
X139043419Y-97855750D01*
X139038203Y-97834926D01*
X139035053Y-97813691D01*
X139034000Y-97792250D01*
X139034000Y-97279750D01*
X139035053Y-97258309D01*
X139038203Y-97237074D01*
X139043419Y-97216250D01*
X139050651Y-97196038D01*
X139059830Y-97176632D01*
X139070866Y-97158219D01*
X139083654Y-97140976D01*
X139098070Y-97125070D01*
X139113976Y-97110654D01*
X139131219Y-97097866D01*
X139149632Y-97086830D01*
X139169038Y-97077651D01*
X139189250Y-97070419D01*
X139210074Y-97065203D01*
X139231309Y-97062053D01*
X139252750Y-97061000D01*
X139690250Y-97061000D01*
X139711691Y-97062053D01*
X139711691Y-97062053D01*
G37*
D13*
X139471500Y-97536000D03*
G04 #@! TD*
D14*
G04 #@! TO.C,J1*
X180637500Y-101000000D03*
D15*
X177937500Y-100000000D03*
X177937500Y-99350000D03*
X177937500Y-98700000D03*
X177937500Y-101300000D03*
X177937500Y-100650000D03*
D14*
X180637500Y-99000000D03*
G04 #@! TD*
D16*
G04 #@! TO.C,J3*
X170133518Y-72146384D03*
D12*
G36*
X171158823Y-72217095D02*
X170204229Y-73171689D01*
X169108213Y-72075673D01*
X170062807Y-71121079D01*
X171158823Y-72217095D01*
X171158823Y-72217095D01*
G37*
D17*
X177978867Y-80309932D03*
D12*
G36*
X179028921Y-80087193D02*
X177756128Y-81359986D01*
X176928813Y-80532671D01*
X178201606Y-79259878D01*
X179028921Y-80087193D01*
X179028921Y-80087193D01*
G37*
D16*
X164918605Y-82063556D03*
D12*
G36*
X166067654Y-82258010D02*
X165113059Y-83212605D01*
X163769556Y-81869102D01*
X164724151Y-80914507D01*
X166067654Y-82258010D01*
X166067654Y-82258010D01*
G37*
D16*
X169140033Y-86284984D03*
D12*
G36*
X170289082Y-86479438D02*
X169334487Y-87434033D01*
X167990984Y-86090530D01*
X168945579Y-85135935D01*
X170289082Y-86479438D01*
X170289082Y-86479438D01*
G37*
D18*
X163133161Y-78899254D03*
D12*
G36*
X163910978Y-78969965D02*
X163203872Y-79677071D01*
X162355344Y-78828543D01*
X163062450Y-78121437D01*
X163910978Y-78969965D01*
X163910978Y-78969965D01*
G37*
D18*
X165749456Y-76282959D03*
D12*
G36*
X166527273Y-76353670D02*
X165820167Y-77060776D01*
X164971639Y-76212248D01*
X165678745Y-75505142D01*
X166527273Y-76353670D01*
X166527273Y-76353670D01*
G37*
D19*
X171961389Y-73797478D03*
D12*
G36*
X172650818Y-73709090D02*
X171873001Y-74486907D01*
X171271960Y-73885866D01*
X172049777Y-73108049D01*
X172650818Y-73709090D01*
X172650818Y-73709090D01*
G37*
D13*
X172739206Y-74575296D03*
D12*
G36*
X173437474Y-74495746D02*
X172659656Y-75273564D01*
X172040938Y-74654846D01*
X172818756Y-73877028D01*
X173437474Y-74495746D01*
X173437474Y-74495746D01*
G37*
D19*
X173517024Y-75353113D03*
D12*
G36*
X174206453Y-75264725D02*
X173428636Y-76042542D01*
X172827595Y-75441501D01*
X173605412Y-74663684D01*
X174206453Y-75264725D01*
X174206453Y-75264725D01*
G37*
D19*
X174294841Y-76130931D03*
D12*
G36*
X174984270Y-76042543D02*
X174206453Y-76820360D01*
X173605412Y-76219319D01*
X174383229Y-75441502D01*
X174984270Y-76042543D01*
X174984270Y-76042543D01*
G37*
D19*
X175072659Y-76908748D03*
D12*
G36*
X175762088Y-76820360D02*
X174984271Y-77598177D01*
X174383230Y-76997136D01*
X175161047Y-76219319D01*
X175762088Y-76820360D01*
X175762088Y-76820360D01*
G37*
D19*
X175850476Y-77686565D03*
D12*
G36*
X176539905Y-77598177D02*
X175762088Y-78375994D01*
X175161047Y-77774953D01*
X175938864Y-76997136D01*
X176539905Y-77598177D01*
X176539905Y-77598177D01*
G37*
D19*
X176628293Y-78464383D03*
D12*
G36*
X177317722Y-78375995D02*
X176539905Y-79153812D01*
X175938864Y-78552771D01*
X176716681Y-77774954D01*
X177317722Y-78375995D01*
X177317722Y-78375995D01*
G37*
D20*
X177370756Y-79206845D03*
D12*
G36*
X178024830Y-79083101D02*
X177247012Y-79860919D01*
X176716682Y-79330589D01*
X177494500Y-78552771D01*
X178024830Y-79083101D01*
X178024830Y-79083101D01*
G37*
G04 #@! TD*
D21*
G04 #@! TO.C,U1*
X144000000Y-92100000D03*
X144500000Y-92100000D03*
X145000001Y-92100000D03*
X145500000Y-92100000D03*
X145999999Y-92100000D03*
X146500000Y-92100000D03*
X147000000Y-92100000D03*
X147500000Y-92099999D03*
X148000000Y-92100000D03*
X148500000Y-92100000D03*
X149000000Y-92100000D03*
X149500000Y-92100000D03*
X150000000Y-92099999D03*
X150500000Y-92100000D03*
X151000000Y-92100000D03*
X151500000Y-92100000D03*
X152000000Y-92100000D03*
X152500000Y-92099999D03*
X153000000Y-92100000D03*
X153500000Y-92100000D03*
X154000001Y-92100000D03*
X154500000Y-92100000D03*
X154999999Y-92100000D03*
X155500000Y-92100000D03*
X156000000Y-92100000D03*
D22*
X157900000Y-94000000D03*
X157900000Y-94500000D03*
X157900000Y-95000001D03*
X157900000Y-95500000D03*
X157900000Y-95999999D03*
X157900000Y-96500000D03*
X157900000Y-97000000D03*
X157900001Y-97500000D03*
X157900000Y-98000000D03*
X157900000Y-98500000D03*
X157900000Y-99000000D03*
X157900000Y-99500000D03*
X157900001Y-100000000D03*
X157900000Y-100500000D03*
X157900000Y-101000000D03*
X157900000Y-101500000D03*
X157900000Y-102000000D03*
X157900001Y-102500000D03*
X157900000Y-103000000D03*
X157900000Y-103500000D03*
X157900000Y-104000001D03*
X157900000Y-104500000D03*
X157900000Y-104999999D03*
X157900000Y-105500000D03*
X157900000Y-106000000D03*
D21*
X156000000Y-107900000D03*
X155500000Y-107900000D03*
X154999999Y-107900000D03*
X154500000Y-107900000D03*
X154000001Y-107900000D03*
X153500000Y-107900000D03*
X153000000Y-107900000D03*
X152500000Y-107900001D03*
X152000000Y-107900000D03*
X151500000Y-107900000D03*
X151000000Y-107900000D03*
X150500000Y-107900000D03*
X150000000Y-107900001D03*
X149500000Y-107900000D03*
X149000000Y-107900000D03*
X148500000Y-107900000D03*
X148000000Y-107900000D03*
X147500000Y-107900001D03*
X147000000Y-107900000D03*
X146500000Y-107900000D03*
X145999999Y-107900000D03*
X145500000Y-107900000D03*
X145000001Y-107900000D03*
X144500000Y-107900000D03*
X144000000Y-107900000D03*
D22*
X142100000Y-106000000D03*
X142100000Y-105500000D03*
X142100000Y-104999999D03*
X142100000Y-104500000D03*
X142100000Y-104000001D03*
X142100000Y-103500000D03*
X142100000Y-103000000D03*
X142099999Y-102500000D03*
X142100000Y-102000000D03*
X142100000Y-101500000D03*
X142100000Y-101000000D03*
X142100000Y-100500000D03*
X142099999Y-100000000D03*
X142100000Y-99500000D03*
X142100000Y-99000000D03*
X142100000Y-98500000D03*
X142100000Y-98000000D03*
X142099999Y-97500000D03*
X142100000Y-97000000D03*
X142100000Y-96500000D03*
X142100000Y-95999999D03*
X142100000Y-95500000D03*
X142100000Y-95000001D03*
X142100000Y-94500000D03*
X142100000Y-94000000D03*
G04 #@! TD*
D23*
G04 #@! TO.C,Q3*
X177816000Y-87122000D03*
X179816000Y-86172000D03*
X179816000Y-88072000D03*
G04 #@! TD*
D24*
G04 #@! TO.C,U2*
X169588000Y-100010000D03*
X169588000Y-98110000D03*
X171788000Y-98110000D03*
X171788000Y-99060000D03*
X171788000Y-100010000D03*
G04 #@! TD*
D12*
G04 #@! TO.C,R4*
G36*
X181887691Y-87473053D02*
X181908926Y-87476203D01*
X181929750Y-87481419D01*
X181949962Y-87488651D01*
X181969368Y-87497830D01*
X181987781Y-87508866D01*
X182005024Y-87521654D01*
X182020930Y-87536070D01*
X182035346Y-87551976D01*
X182048134Y-87569219D01*
X182059170Y-87587632D01*
X182068349Y-87607038D01*
X182075581Y-87627250D01*
X182080797Y-87648074D01*
X182083947Y-87669309D01*
X182085000Y-87690750D01*
X182085000Y-88128250D01*
X182083947Y-88149691D01*
X182080797Y-88170926D01*
X182075581Y-88191750D01*
X182068349Y-88211962D01*
X182059170Y-88231368D01*
X182048134Y-88249781D01*
X182035346Y-88267024D01*
X182020930Y-88282930D01*
X182005024Y-88297346D01*
X181987781Y-88310134D01*
X181969368Y-88321170D01*
X181949962Y-88330349D01*
X181929750Y-88337581D01*
X181908926Y-88342797D01*
X181887691Y-88345947D01*
X181866250Y-88347000D01*
X181353750Y-88347000D01*
X181332309Y-88345947D01*
X181311074Y-88342797D01*
X181290250Y-88337581D01*
X181270038Y-88330349D01*
X181250632Y-88321170D01*
X181232219Y-88310134D01*
X181214976Y-88297346D01*
X181199070Y-88282930D01*
X181184654Y-88267024D01*
X181171866Y-88249781D01*
X181160830Y-88231368D01*
X181151651Y-88211962D01*
X181144419Y-88191750D01*
X181139203Y-88170926D01*
X181136053Y-88149691D01*
X181135000Y-88128250D01*
X181135000Y-87690750D01*
X181136053Y-87669309D01*
X181139203Y-87648074D01*
X181144419Y-87627250D01*
X181151651Y-87607038D01*
X181160830Y-87587632D01*
X181171866Y-87569219D01*
X181184654Y-87551976D01*
X181199070Y-87536070D01*
X181214976Y-87521654D01*
X181232219Y-87508866D01*
X181250632Y-87497830D01*
X181270038Y-87488651D01*
X181290250Y-87481419D01*
X181311074Y-87476203D01*
X181332309Y-87473053D01*
X181353750Y-87472000D01*
X181866250Y-87472000D01*
X181887691Y-87473053D01*
X181887691Y-87473053D01*
G37*
D13*
X181610000Y-87909500D03*
D12*
G36*
X181887691Y-85898053D02*
X181908926Y-85901203D01*
X181929750Y-85906419D01*
X181949962Y-85913651D01*
X181969368Y-85922830D01*
X181987781Y-85933866D01*
X182005024Y-85946654D01*
X182020930Y-85961070D01*
X182035346Y-85976976D01*
X182048134Y-85994219D01*
X182059170Y-86012632D01*
X182068349Y-86032038D01*
X182075581Y-86052250D01*
X182080797Y-86073074D01*
X182083947Y-86094309D01*
X182085000Y-86115750D01*
X182085000Y-86553250D01*
X182083947Y-86574691D01*
X182080797Y-86595926D01*
X182075581Y-86616750D01*
X182068349Y-86636962D01*
X182059170Y-86656368D01*
X182048134Y-86674781D01*
X182035346Y-86692024D01*
X182020930Y-86707930D01*
X182005024Y-86722346D01*
X181987781Y-86735134D01*
X181969368Y-86746170D01*
X181949962Y-86755349D01*
X181929750Y-86762581D01*
X181908926Y-86767797D01*
X181887691Y-86770947D01*
X181866250Y-86772000D01*
X181353750Y-86772000D01*
X181332309Y-86770947D01*
X181311074Y-86767797D01*
X181290250Y-86762581D01*
X181270038Y-86755349D01*
X181250632Y-86746170D01*
X181232219Y-86735134D01*
X181214976Y-86722346D01*
X181199070Y-86707930D01*
X181184654Y-86692024D01*
X181171866Y-86674781D01*
X181160830Y-86656368D01*
X181151651Y-86636962D01*
X181144419Y-86616750D01*
X181139203Y-86595926D01*
X181136053Y-86574691D01*
X181135000Y-86553250D01*
X181135000Y-86115750D01*
X181136053Y-86094309D01*
X181139203Y-86073074D01*
X181144419Y-86052250D01*
X181151651Y-86032038D01*
X181160830Y-86012632D01*
X181171866Y-85994219D01*
X181184654Y-85976976D01*
X181199070Y-85961070D01*
X181214976Y-85946654D01*
X181232219Y-85933866D01*
X181250632Y-85922830D01*
X181270038Y-85913651D01*
X181290250Y-85906419D01*
X181311074Y-85901203D01*
X181332309Y-85898053D01*
X181353750Y-85897000D01*
X181866250Y-85897000D01*
X181887691Y-85898053D01*
X181887691Y-85898053D01*
G37*
D13*
X181610000Y-86334500D03*
G04 #@! TD*
D12*
G04 #@! TO.C,R1*
G36*
X132767691Y-98351053D02*
X132788926Y-98354203D01*
X132809750Y-98359419D01*
X132829962Y-98366651D01*
X132849368Y-98375830D01*
X132867781Y-98386866D01*
X132885024Y-98399654D01*
X132900930Y-98414070D01*
X132915346Y-98429976D01*
X132928134Y-98447219D01*
X132939170Y-98465632D01*
X132948349Y-98485038D01*
X132955581Y-98505250D01*
X132960797Y-98526074D01*
X132963947Y-98547309D01*
X132965000Y-98568750D01*
X132965000Y-99006250D01*
X132963947Y-99027691D01*
X132960797Y-99048926D01*
X132955581Y-99069750D01*
X132948349Y-99089962D01*
X132939170Y-99109368D01*
X132928134Y-99127781D01*
X132915346Y-99145024D01*
X132900930Y-99160930D01*
X132885024Y-99175346D01*
X132867781Y-99188134D01*
X132849368Y-99199170D01*
X132829962Y-99208349D01*
X132809750Y-99215581D01*
X132788926Y-99220797D01*
X132767691Y-99223947D01*
X132746250Y-99225000D01*
X132233750Y-99225000D01*
X132212309Y-99223947D01*
X132191074Y-99220797D01*
X132170250Y-99215581D01*
X132150038Y-99208349D01*
X132130632Y-99199170D01*
X132112219Y-99188134D01*
X132094976Y-99175346D01*
X132079070Y-99160930D01*
X132064654Y-99145024D01*
X132051866Y-99127781D01*
X132040830Y-99109368D01*
X132031651Y-99089962D01*
X132024419Y-99069750D01*
X132019203Y-99048926D01*
X132016053Y-99027691D01*
X132015000Y-99006250D01*
X132015000Y-98568750D01*
X132016053Y-98547309D01*
X132019203Y-98526074D01*
X132024419Y-98505250D01*
X132031651Y-98485038D01*
X132040830Y-98465632D01*
X132051866Y-98447219D01*
X132064654Y-98429976D01*
X132079070Y-98414070D01*
X132094976Y-98399654D01*
X132112219Y-98386866D01*
X132130632Y-98375830D01*
X132150038Y-98366651D01*
X132170250Y-98359419D01*
X132191074Y-98354203D01*
X132212309Y-98351053D01*
X132233750Y-98350000D01*
X132746250Y-98350000D01*
X132767691Y-98351053D01*
X132767691Y-98351053D01*
G37*
D13*
X132490000Y-98787500D03*
D12*
G36*
X132767691Y-96776053D02*
X132788926Y-96779203D01*
X132809750Y-96784419D01*
X132829962Y-96791651D01*
X132849368Y-96800830D01*
X132867781Y-96811866D01*
X132885024Y-96824654D01*
X132900930Y-96839070D01*
X132915346Y-96854976D01*
X132928134Y-96872219D01*
X132939170Y-96890632D01*
X132948349Y-96910038D01*
X132955581Y-96930250D01*
X132960797Y-96951074D01*
X132963947Y-96972309D01*
X132965000Y-96993750D01*
X132965000Y-97431250D01*
X132963947Y-97452691D01*
X132960797Y-97473926D01*
X132955581Y-97494750D01*
X132948349Y-97514962D01*
X132939170Y-97534368D01*
X132928134Y-97552781D01*
X132915346Y-97570024D01*
X132900930Y-97585930D01*
X132885024Y-97600346D01*
X132867781Y-97613134D01*
X132849368Y-97624170D01*
X132829962Y-97633349D01*
X132809750Y-97640581D01*
X132788926Y-97645797D01*
X132767691Y-97648947D01*
X132746250Y-97650000D01*
X132233750Y-97650000D01*
X132212309Y-97648947D01*
X132191074Y-97645797D01*
X132170250Y-97640581D01*
X132150038Y-97633349D01*
X132130632Y-97624170D01*
X132112219Y-97613134D01*
X132094976Y-97600346D01*
X132079070Y-97585930D01*
X132064654Y-97570024D01*
X132051866Y-97552781D01*
X132040830Y-97534368D01*
X132031651Y-97514962D01*
X132024419Y-97494750D01*
X132019203Y-97473926D01*
X132016053Y-97452691D01*
X132015000Y-97431250D01*
X132015000Y-96993750D01*
X132016053Y-96972309D01*
X132019203Y-96951074D01*
X132024419Y-96930250D01*
X132031651Y-96910038D01*
X132040830Y-96890632D01*
X132051866Y-96872219D01*
X132064654Y-96854976D01*
X132079070Y-96839070D01*
X132094976Y-96824654D01*
X132112219Y-96811866D01*
X132130632Y-96800830D01*
X132150038Y-96791651D01*
X132170250Y-96784419D01*
X132191074Y-96779203D01*
X132212309Y-96776053D01*
X132233750Y-96775000D01*
X132746250Y-96775000D01*
X132767691Y-96776053D01*
X132767691Y-96776053D01*
G37*
D13*
X132490000Y-97212500D03*
G04 #@! TD*
D12*
G04 #@! TO.C,R3*
G36*
X162825692Y-99348053D02*
X162846927Y-99351203D01*
X162867751Y-99356419D01*
X162887963Y-99363651D01*
X162907369Y-99372830D01*
X162925782Y-99383866D01*
X162943025Y-99396654D01*
X162958931Y-99411070D01*
X162973347Y-99426976D01*
X162986135Y-99444219D01*
X162997171Y-99462632D01*
X163006350Y-99482038D01*
X163013582Y-99502250D01*
X163018798Y-99523074D01*
X163021948Y-99544309D01*
X163023001Y-99565750D01*
X163023001Y-100078250D01*
X163021948Y-100099691D01*
X163018798Y-100120926D01*
X163013582Y-100141750D01*
X163006350Y-100161962D01*
X162997171Y-100181368D01*
X162986135Y-100199781D01*
X162973347Y-100217024D01*
X162958931Y-100232930D01*
X162943025Y-100247346D01*
X162925782Y-100260134D01*
X162907369Y-100271170D01*
X162887963Y-100280349D01*
X162867751Y-100287581D01*
X162846927Y-100292797D01*
X162825692Y-100295947D01*
X162804251Y-100297000D01*
X162366751Y-100297000D01*
X162345310Y-100295947D01*
X162324075Y-100292797D01*
X162303251Y-100287581D01*
X162283039Y-100280349D01*
X162263633Y-100271170D01*
X162245220Y-100260134D01*
X162227977Y-100247346D01*
X162212071Y-100232930D01*
X162197655Y-100217024D01*
X162184867Y-100199781D01*
X162173831Y-100181368D01*
X162164652Y-100161962D01*
X162157420Y-100141750D01*
X162152204Y-100120926D01*
X162149054Y-100099691D01*
X162148001Y-100078250D01*
X162148001Y-99565750D01*
X162149054Y-99544309D01*
X162152204Y-99523074D01*
X162157420Y-99502250D01*
X162164652Y-99482038D01*
X162173831Y-99462632D01*
X162184867Y-99444219D01*
X162197655Y-99426976D01*
X162212071Y-99411070D01*
X162227977Y-99396654D01*
X162245220Y-99383866D01*
X162263633Y-99372830D01*
X162283039Y-99363651D01*
X162303251Y-99356419D01*
X162324075Y-99351203D01*
X162345310Y-99348053D01*
X162366751Y-99347000D01*
X162804251Y-99347000D01*
X162825692Y-99348053D01*
X162825692Y-99348053D01*
G37*
D13*
X162585501Y-99822000D03*
D12*
G36*
X161250690Y-99348053D02*
X161271925Y-99351203D01*
X161292749Y-99356419D01*
X161312961Y-99363651D01*
X161332367Y-99372830D01*
X161350780Y-99383866D01*
X161368023Y-99396654D01*
X161383929Y-99411070D01*
X161398345Y-99426976D01*
X161411133Y-99444219D01*
X161422169Y-99462632D01*
X161431348Y-99482038D01*
X161438580Y-99502250D01*
X161443796Y-99523074D01*
X161446946Y-99544309D01*
X161447999Y-99565750D01*
X161447999Y-100078250D01*
X161446946Y-100099691D01*
X161443796Y-100120926D01*
X161438580Y-100141750D01*
X161431348Y-100161962D01*
X161422169Y-100181368D01*
X161411133Y-100199781D01*
X161398345Y-100217024D01*
X161383929Y-100232930D01*
X161368023Y-100247346D01*
X161350780Y-100260134D01*
X161332367Y-100271170D01*
X161312961Y-100280349D01*
X161292749Y-100287581D01*
X161271925Y-100292797D01*
X161250690Y-100295947D01*
X161229249Y-100297000D01*
X160791749Y-100297000D01*
X160770308Y-100295947D01*
X160749073Y-100292797D01*
X160728249Y-100287581D01*
X160708037Y-100280349D01*
X160688631Y-100271170D01*
X160670218Y-100260134D01*
X160652975Y-100247346D01*
X160637069Y-100232930D01*
X160622653Y-100217024D01*
X160609865Y-100199781D01*
X160598829Y-100181368D01*
X160589650Y-100161962D01*
X160582418Y-100141750D01*
X160577202Y-100120926D01*
X160574052Y-100099691D01*
X160572999Y-100078250D01*
X160572999Y-99565750D01*
X160574052Y-99544309D01*
X160577202Y-99523074D01*
X160582418Y-99502250D01*
X160589650Y-99482038D01*
X160598829Y-99462632D01*
X160609865Y-99444219D01*
X160622653Y-99426976D01*
X160637069Y-99411070D01*
X160652975Y-99396654D01*
X160670218Y-99383866D01*
X160688631Y-99372830D01*
X160708037Y-99363651D01*
X160728249Y-99356419D01*
X160749073Y-99351203D01*
X160770308Y-99348053D01*
X160791749Y-99347000D01*
X161229249Y-99347000D01*
X161250690Y-99348053D01*
X161250690Y-99348053D01*
G37*
D13*
X161010499Y-99822000D03*
G04 #@! TD*
M02*
